<svg xmlns="http://www.w3.org/2000/svg" viewBox="0 0 320 64" width="320" height="64">
  <path d="M 8.64,8 H 39.36 Q 48,8 48,16.64 V 47.36 Q 48,56 39.36,56 H 8.64 Q 0,56 0,47.36 V 16.64 Q 0,8 8.64,8 Z" fill="#0d1226"/>
  <path d="M 28.80,27.08 A 6.24,6.24 0 0,1 28.80,36.92" fill="none" stroke="#3b82f6" stroke-width="1.8" stroke-linecap="round" opacity="0.85"/>
  <path d="M 31.17,24.06 A 10.08,10.08 0 0,1 31.17,39.94" fill="none" stroke="#3b82f6" stroke-width="1.4" stroke-linecap="round" opacity="0.60"/>
  <path d="M 33.53,21.03 A 13.92,13.92 0 0,1 33.53,42.97" fill="none" stroke="#3b82f6" stroke-width="1.1" stroke-linecap="round" opacity="0.38"/>
  <rect x="25.8" y="20.5" width="2.2" height="23.0" rx="1.1" fill="#93c5fd"/>
  <rect x="24.7" y="20.5" width="4.3" height="1.5" rx="0.8" fill="#93c5fd"/>
  <rect x="24.7" y="42.0" width="4.3" height="1.5" rx="0.8" fill="#93c5fd"/>
  <text x="62" y="42" font-family="-apple-system,BlinkMacSystemFont,SF Pro Display,sans-serif" font-size="28" font-weight="600" letter-spacing="-0.5"><tspan fill="#3b82f6">Speak</tspan><tspan fill="#1e293b">Paste</tspan></text>
</svg>
