<svg xmlns="http://www.w3.org/2000/svg" viewBox="0 0 1024 1024" width="1024" height="1024">
  <path d="M 184.32,0 H 839.6800000000001 Q 1024,0 1024,184.32 V 839.6800000000001 Q 1024,1024 839.6800000000001,1024 H 184.32 Q 0,1024 0,839.6800000000001 V 184.32 Q 0,0 184.32,0 Z" fill="#0d1226"/>
  <radialGradient id="g" cx="52%" cy="48%" r="38%"><stop offset="0%" stop-color="#1e40af" stop-opacity="0.22"/><stop offset="100%" stop-color="#0d1226" stop-opacity="0"/></radialGradient>
  <rect width="1024" height="1024" rx="184.32" fill="url(#g)"/>
  <path d="M 614.44,407.10 A 133.12,133.12 0 0,1 614.44,616.90" fill="none" stroke="#3b82f6" stroke-width="38.9" stroke-linecap="round" opacity="0.85"/>
  <path d="M 664.87,342.55 A 215.04,215.04 0 0,1 664.87,681.45" fill="none" stroke="#3b82f6" stroke-width="30.7" stroke-linecap="round" opacity="0.60"/>
  <path d="M 715.31,277.99 A 296.96,296.96 0 0,1 715.31,746.01" fill="none" stroke="#3b82f6" stroke-width="22.5" stroke-linecap="round" opacity="0.38"/>
  <rect x="550.4" y="266.2" width="46.1" height="491.5" rx="23.0" fill="#93c5fd"/>
  <rect x="527.4" y="266.2" width="92.2" height="32.8" rx="16.4" fill="#93c5fd"/>
  <rect x="527.4" y="725.0" width="92.2" height="32.8" rx="16.4" fill="#93c5fd"/>
  <circle cx="307.2" cy="696.3" r="38.9" fill="#3b82f6" opacity="0.55"/>
</svg>
