<svg xmlns="http://www.w3.org/2000/svg" viewBox="0 0 64 64" width="64" height="64">
  <path d="M 11.52,0 H 52.480000000000004 Q 64,0 64,11.52 V 52.480000000000004 Q 64,64 52.480000000000004,64 H 11.52 Q 0,64 0,52.480000000000004 V 11.52 Q 0,0 11.52,0 Z" fill="#0d1226"/>
  <path d="M 38.40,25.44 A 8.32,8.32 0 0,1 38.40,38.56" fill="none" stroke="#3b82f6" stroke-width="2.4" stroke-linecap="round" opacity="0.85"/>
  <path d="M 41.55,21.41 A 13.44,13.44 0 0,1 41.55,42.59" fill="none" stroke="#3b82f6" stroke-width="1.9" stroke-linecap="round" opacity="0.60"/>
  <path d="M 44.71,17.37 A 18.56,18.56 0 0,1 44.71,46.63" fill="none" stroke="#3b82f6" stroke-width="1.4" stroke-linecap="round" opacity="0.38"/>
  <rect x="34.4" y="16.6" width="2.9" height="30.7" rx="1.4" fill="#93c5fd"/>
  <rect x="33.0" y="16.6" width="5.8" height="2.0" rx="1.0" fill="#93c5fd"/>
  <rect x="33.0" y="45.3" width="5.8" height="2.0" rx="1.0" fill="#93c5fd"/>
</svg>
